<svg width="286" height="229" viewBox="0 0 286 229" fill="none" xmlns="http://www.w3.org/2000/svg">
<g clip-path="url(#clip0_1_867)">
<g clip-path="url(#clip1_1_867)">
<rect width="286" height="229" fill="#FCFAF6"/>
<path d="M143 229C221.977 229 286 177.737 286 114.5C286 51.2634 221.977 0 143 0C64.0233 0 0 51.2634 0 114.5C0 177.737 64.0233 229 143 229Z" fill="#F7F3EB"/>
</g>
<g clip-path="url(#clip2_1_867)">
<rect width="286" height="229" fill="#FCFAF6"/>
<path d="M143 229C221.977 229 286 177.737 286 114.5C286 51.2634 221.977 0 143 0C64.0233 0 0 51.2634 0 114.5C0 177.737 64.0233 229 143 229Z" fill="#F7F3EB"/>
</g>
</g>
<defs>
<clipPath id="clip0_1_867">
<rect width="286" height="229" fill="white"/>
</clipPath>
<clipPath id="clip1_1_867">
<rect width="286" height="229" fill="white"/>
</clipPath>
<clipPath id="clip2_1_867">
<rect width="286" height="229" fill="white"/>
</clipPath>
</defs>
</svg>
