<svg width="80" height="20" viewBox="0 0 80 20" fill="none" xmlns="http://www.w3.org/2000/svg">
<path d="M0 5C0 2.23858 2.23858 0 5 0H75C77.7614 0 80 2.23858 80 5V15C80 17.7614 77.7614 20 75 20H5C2.23858 20 0 17.7614 0 15V5Z" fill="#FCFAF6"/>
<path d="M38.8441 2C38.0127 2 37.3388 2.67425 37.3388 3.50568C37.3388 4.33712 38.0127 5.01109 38.8441 5.01109C39.6752 5.01109 40.3494 4.33712 40.3494 3.50568C40.3494 2.67425 39.6752 2 38.8441 2ZM38.0332 5.11102C37.1468 5.11298 36.9832 5.67102 36.9832 6.12772V11.4998C36.9832 11.9615 37.3551 12.3349 37.8165 12.3332L41.633 12.3164C41.633 12.3164 42.9469 14.3062 43.6051 15.2996C43.8024 15.5975 44.0648 15.8608 44.4437 15.8608C44.9436 15.8608 45.404 15.4529 45.3492 14.9552C45.3285 14.7601 45.2844 14.5752 45.1662 14.3997C44.5793 13.5248 43.4164 11.6323 42.7773 10.9218C42.6151 10.7413 42.3908 10.6097 42.1275 10.6105L38.9721 10.6218V7.27775L41.2221 8.8334C41.5465 9.05712 41.9872 8.97432 42.2106 8.65011C42.4346 8.32561 42.3521 7.88519 42.0273 7.66119C42.0273 7.66119 39.6878 6.04716 38.5166 5.23902C38.3947 5.15481 38.1696 5.11102 38.0332 5.11102ZM46.7327 6.6167C46.6785 6.6167 46.6241 6.63607 46.5826 6.67761L43.7771 9.48323H39.7996C39.6822 9.48323 39.5888 9.57698 39.5888 9.69432V9.77207C39.5888 9.88968 39.6822 9.98316 39.7996 9.98316H43.8883C43.9517 9.98316 44.0132 9.95846 44.0491 9.92225L46.9379 7.03326C47.0207 6.95018 47.0207 6.81628 46.9379 6.73319L46.8823 6.67761C46.8413 6.63635 46.7863 6.6167 46.7327 6.6167ZM36.5832 8.08337C34.5221 8.70288 33 10.6234 33 12.9331C33 15.753 35.2794 18 38.022 18C40.1232 18 41.9527 16.6844 42.694 14.8L41.9386 13.6609C41.5962 15.4703 39.998 16.8668 38.0223 16.8668C35.7894 16.8668 34.0338 15.0807 34.0338 12.9331C34.0338 11.2769 35.0821 9.83804 36.5835 9.26653V8.08337H36.5832Z" fill="black" fill-opacity="0.5"/>
</svg>
